<?xml version="1.0" encoding="iso-8859-1"?>
<!-- Generator: Adobe Illustrator 19.0.0, SVG Export Plug-In . SVG Version: 6.00 Build 0)  -->
<svg xmlns="http://www.w3.org/2000/svg" xmlns:xlink="http://www.w3.org/1999/xlink" version="1.1" id="Layer_1" x="0px" y="0px" viewBox="0 0 512 512" style="enable-background:new 0 0 512 512;" xml:space="preserve" width="512" height="512">
<g>
	<polygon points="490.272,31 321.728,31 351.728,91 460.272,91  "/>
	<path d="M391,168.763V121h-43.028L301,191.459V361h90v-47.763c-17.422-6.213-30-22.707-30-42.237h30c0,8.276,6.724,15,15,15   s15-6.724,15-15s-6.724-15-15-15c-24.814,0-45-20.186-45-45C361,191.47,373.578,174.976,391,168.763z"/>
	<path d="M421,121v47.763c17.422,6.213,30,22.707,30,42.237h-30c0-8.276-6.724-15-15-15s-15,6.724-15,15s6.724,15,15,15   c24.814,0,45,20.186,45,45c0,19.53-12.578,36.024-30,42.237V361h91V191.459L464.028,121H421z"/>
	<path d="M31,76c0,24.853,20.147,45,45,45h135c0-33.138-26.863-60-60-60H31V76z"/>
	<path d="M331,481h45c24.853,0,45-20.147,45-45v-15h-90V481z"/>
	<path d="M136,331l30-30v-6.332c26.468-11.583,45-37.93,45-68.668v-15c16.569,0,30-13.433,30-30c0-16.569-13.431-30-30-30H61   c-16.569,0-30,13.431-30,30c0,16.567,13.431,30,30,30v15c0,30.738,18.532,57.085,45,68.668V301L136,331z"/>
	<polygon points="196,313.422 151,358.422 151,481 196,481 196,391 226,391 226,481 301,481 301,421 271,421 271,301 196,301  "/>
	<polygon points="46,391 76,391 76,481 121,481 121,358.422 76,313.422 76,301 0,301 0,481 46,481  "/>
</g>















</svg>
